<svg viewBox="0 0 973.3 698.55" xmlns="http://www.w3.org/2000/svg"><path d="m258.59 634.27 23 44.69 9.58-4.93-23.82-46.28" fill="#f96440"/><path d="m269.86 636.55 10.49 20.4-10.3 3.51-8.95-17.38z" fill="#463e3b" opacity=".2"/><path d="m293.58 674.81-14.36 7.39-24.23-47.08 4.79-2.47 21.76 42.3 4.79-2.47-22.59-43.88 4.79-2.47z" fill="#314e5d"/><path d="m237.78 663.15 221.73-114.15a37.22 37.22 0 0 0 16.06-50.13l-195.1-379.04a37.22 37.22 0 0 0 -50.13-16.06l-221.73 114.12a13.15 13.15 0 0 0 -5.67 17.71l217.13 421.88a13.15 13.15 0 0 0 17.71 5.67z" fill="#e8f0f9"/><path d="m231.17 105.37-221.73 114.11a13.13 13.13 0 0 0 -7.06 10.33 13.14 13.14 0 0 1 3.14-2.25l221.73-114.12a37.22 37.22 0 0 1 50.13 16.06l195.1 379.08a37.08 37.08 0 0 1 2.08 29.13 37.18 37.18 0 0 0 1.84-37.2l-195.1-379.08a37.22 37.22 0 0 0 -50.13-16.06z" fill="#fff"/><path d="m18.49 214.82-5.86 3a13.15 13.15 0 0 0 -5.63 17.73l217.08 421.88a13.15 13.15 0 0 0 17.71 5.68l5.86-3z" fill="#bcd9ea"/><path d="m462 551.82-221.78 114.11a15.86 15.86 0 0 1 -21.34-6.84l-217.13-421.87a15.86 15.86 0 0 1 6.84-21.34l221.73-114.12a40 40 0 0 1 53.76 17.24l195.1 379.08a40 40 0 0 1 -17.18 53.74zm-450.94-331.15a10.47 10.47 0 0 0 -4.51 14.09l217.12 421.87a10.47 10.47 0 0 0 14.09 4.51l221.73-114.14a34.57 34.57 0 0 0 14.9-46.5l-195.1-379.05a34.57 34.57 0 0 0 -46.5-14.9z" fill="#314e5d"/><path d="m321 290-26.78-26.56-43.09-42.75-.95-.94a9.36 9.36 0 0 0 -13.23.05l-.94.95-132.79 133.86-.94 1a9.36 9.36 0 0 0 .05 13.23l35.41 35.13 34.46 34.13 1 .94a9.36 9.36 0 0 0 13.23-.05l134.67-135.81a9.36 9.36 0 0 0 -.1-13.18z" fill="#463e3b" opacity=".2"/><rect fill="#fff" height="118.46" rx="5.96" transform="matrix(.76559551 -.64332225 .64332225 .76559551 -156.24 212.31)" width="210" x="108.19" y="261.29"/><path d="m215.83 395.67-36.73 30.88a10.7 10.7 0 0 1 -15.1-1.31l-62.45-74.32a7.48 7.48 0 0 1 -.65-.88c12.6 2.64 26.28 2.42 39.19 1.59 6.87-.45 13.8-1 20.62-.18 17.81 2.16 33.39 13.64 44.4 27.78a122.71 122.71 0 0 1 10.72 16.44z" fill="#ded6d3" opacity=".2"/><path d="m177.55 431a12.06 12.06 0 0 1 -14.72-3l-64.18-76.37a12.06 12.06 0 0 1 1.47-17l146.45-123.05a12 12 0 0 1 17 1.47l64.18 76.36a12.06 12.06 0 0 1 -1.47 17l-146.47 123.06a12.17 12.17 0 0 1 -2.26 1.53zm73.72-216.09a6.64 6.64 0 0 0 -1.24.83l-146.44 123.04a6.67 6.67 0 0 0 -.81 9.39l64.22 76.36a6.67 6.67 0 0 0 9.39.81l146.4-123.07a6.67 6.67 0 0 0 .81-9.39l-64.18-76.36a6.67 6.67 0 0 0 -8.15-1.64z" fill="#314e5d"/><path d="m201.84 128a12.09 12.09 0 0 0 -16.28-5.22l-8.83 4.55a12.08 12.08 0 0 0 -6 14.21 12 12 0 0 0 1.31 4.84l224.64 436.54a12.09 12.09 0 0 0 16.32 5.21l8.83-4.55a15.86 15.86 0 0 0 4.72-19.05z" fill="#463e3b" opacity=".2"/><rect fill="#938d35" height="515.14" rx="12.75" transform="matrix(.88917692 -.45756356 .45756356 .88917692 -124.93 179.37)" width="34.1" x="290.72" y="89.99"/><path d="m195.94 118.51 234.47 455.58a3.18 3.18 0 0 1 -.36.2l-4.42 2.28-234.5-455.64 3.69-1.9q.54-.28 1.12-.52z" fill="#dae23b"/><path d="m297.2 94.7h1.79v515.16h-1.79z" fill="#463e3b" transform="matrix(.88917692 -.45756356 .45756356 .88917692 -128.16 175.46)"/><path d="m302.8 93.83h1.79v515.16h-1.79z" fill="#463e3b" transform="matrix(.88917692 -.45756356 .45756356 .88917692 -127.14 177.93)"/><path d="m307.59 91.36h1.79v515.16h-1.79z" fill="#463e3b" transform="matrix(.88917692 -.45756356 .45756356 .88917692 -125.49 179.85)"/><path d="m312.38 88.9h1.79v515.16h-1.79z" fill="#463e3b" transform="matrix(.88917692 -.45756356 .45756356 .88917692 -123.83 181.77)"/><path d="m317.17 86.44h1.79v515.16h-1.79z" fill="#463e3b" transform="matrix(.88917692 -.45756356 .45756356 .88917692 -122.17 183.69)"/><path d="m431 577.86-8.83 4.55a14.79 14.79 0 0 1 -19.9-6.38l-224.72-436.54a14.79 14.79 0 0 1 6.38-19.9l8.83-4.55a14.79 14.79 0 0 1 19.9 6.38l224.67 436.58a14.79 14.79 0 0 1 -6.33 19.86zm-244.61-453.48a9.4 9.4 0 0 0 -4.06 12.62l224.67 436.57a9.4 9.4 0 0 0 12.65 4.05l8.83-4.55a9.4 9.4 0 0 0 4.05-12.65l-224.66-436.54a9.4 9.4 0 0 0 -12.65-4.05z" fill="#314e5d"/><rect fill="#1dcdff" height="690.55" rx="25.33" width="505.21" x="323.62" y="3.18"/><path d="m828.83 435.39v217c0 22.84-10.83 41.35-24.19 41.35h-456.83c-13.36 0-24.19-18.51-24.19-41.35v-125.51c30.8 34.58 65.86 57.91 101.82 72.4 43.42 17.52 88.25 22.63 132.85 23.38 53.32.91 107.56-4.57 157.76-35.26 46.03-28.15 88.69-79.88 112.78-152.01z" fill="#1ab5e1"/><path d="m506.28 4.92c-47.59 13.65-113.7.48-154.78 50.64-19.5 23.79-24.29 69.91-27.43 108.06l.06-106.78c0-13.68.27-28.61 5.45-39 6.42-12.93 17.62-13.92 27.5-13.91 48.54.07 101.61-8.93 149.2.99z" fill="#4ed9ff"/><rect fill="none" height="690.55" rx="25.33" stroke="#314e5d" stroke-miterlimit="10" stroke-width="8" width="505.21" x="323.14" y="4"/><rect fill="#fff" height="594.59" rx="15.86" width="410.18" x="371.39" y="48.69"/><path d="m781.07 65.56v115.44h-410.17v-115.44c0-8.86 5.87-16 13.12-16h383.98c7.2-.04 13.07 7.14 13.07 16z" fill="#ea4583"/><rect fill="none" height="598.89" rx="15.86" stroke="#314e5d" stroke-miterlimit="10" stroke-width="8" width="410.18" x="370.9" y="47.7"/><path d="m441.68 126.43h267.94v23.16h-267.94z" fill="#fff"/><path d="m433.33 293.48h131.09v5.51h-131.09z" fill="#afe6ff" transform="matrix(-1 0 0 -1 997.75 592.46)"/><path d="m433.33 305.59h285.3v5.51h-285.3z" fill="#afe6ff" transform="matrix(-1 0 0 -1 1151.97 616.69)"/><path d="m433.33 317.71h131.09v5.51h-131.09z" fill="#afe6ff" transform="matrix(-1 0 0 -1 997.75 640.93)"/><path d="m433.33 329.83h285.3v5.51h-285.3z" fill="#afe6ff" transform="matrix(-1 0 0 -1 1151.97 665.16)"/><path d="m433.33 341.94h131.09v5.51h-131.09z" fill="#afe6ff" transform="matrix(-1 0 0 -1 997.75 689.4)"/><path d="m433.33 354.06h285.3v5.51h-285.3z" fill="#afe6ff" transform="matrix(-1 0 0 -1 1151.97 713.63)"/><path d="m662.81 74.19h98.41v11.58h-98.41z" fill="#eea248" transform="matrix(-1 0 0 -1 1424.04 159.96)"/><path d="m550.84 74.19h98.41v11.58h-98.41z" fill="#eea248" transform="matrix(-1 0 0 -1 1200.09 159.96)"/><circle cx="401.91" cy="79.98" fill="#eea248" r="11.16"/><circle cx="472.61" cy="237.33" fill="#ea4583" r="24.81"/><rect fill="#958fee" height="47.14" rx="14.9" width="47.14" x="657.03" y="215"/><path d="m573.11 218.54a4 4 0 0 1 7 0l10.84 18.77 10.84 18.77a4 4 0 0 1 -3.49 6h-43.37a4 4 0 0 1 -3.49-6l10.84-18.77z" fill="#eea248"/><rect fill="#e8f0f9" height="533.51" rx="21.48" transform="matrix(.94 .34 -.34 .94 187.22 -255.25)" width="116.65" x="773.09" y="146.77"/><path d="m958.12 177-16.21-5.78a16.51 16.51 0 0 1 10 21.09l-168.12 471.44a16.51 16.51 0 0 1 -21.09 10l16.21 5.78a16.51 16.51 0 0 0 21.09-10l168.12-471.41a16.51 16.51 0 0 0 -10-21.12z" fill="#bcd9ea"/><path d="m958.12 177-78.77-28.09a16.51 16.51 0 0 0 -21.09 10l-6.42 18a16.51 16.51 0 0 1 21.09-10l78.77 28.09a16.51 16.51 0 0 1 10 21.09l6.42-18a16.51 16.51 0 0 0 -10-21.09z" fill="#463e3b" opacity=".2"/><g fill="#314e5d"><path d="m945.54 209.68h5.74v19.12h-5.74z" transform="matrix(.33594478 -.94188168 .94188168 .33594478 423.33 1038.89)"/><path d="m940.4 224.09h5.74v19.12h-5.74z" transform="matrix(.33594478 -.94188168 .94188168 .33594478 406.34 1043.62)"/><path d="m935.26 238.49h5.74v19.12h-5.74z" transform="matrix(.33594478 -.94188168 .94188168 .33594478 389.36 1048.35)"/><path d="m921.12 240.13h5.74v38.24h-5.74z" transform="matrix(.34 -.94 .94 .34 369.42 1042.46)"/><path d="m927.98 264.61h5.74v19.12h-5.74z" transform="matrix(.33594478 -.94188168 .94188168 .33594478 359.92 1058.83)"/><path d="m922.84 279.02h5.74v19.12h-5.74z" transform="matrix(.33594478 -.94188168 .94188168 .33594478 342.94 1063.56)"/><path d="m917.7 293.43h5.74v19.12h-5.74z" transform="matrix(.33594478 -.94188168 .94188168 .33594478 325.96 1068.29)"/><path d="m903.56 295.06h5.74v38.24h-5.74z" transform="matrix(.34 -.94 .94 .34 306.02 1062.4)"/><path d="m910.42 319.54h5.74v19.12h-5.74z" transform="matrix(.33594478 -.94188168 .94188168 .33594478 296.52 1078.77)"/><path d="m905.28 333.95h5.74v19.12h-5.74z" transform="matrix(.33594478 -.94188168 .94188168 .33594478 279.54 1083.5)"/><path d="m900.14 348.36h5.74v19.12h-5.74z" transform="matrix(.33594478 -.94188168 .94188168 .33594478 262.55 1088.23)"/><path d="m886 350h5.74v38.24h-5.74z" transform="matrix(.33594478 -.94188168 .94188168 .33594478 242.61 1082.34)"/><path d="m889.26 373.19h5.74v19.12h-5.74z" transform="matrix(.33594478 -.94188168 .94188168 .33594478 231.94 1094.47)"/><path d="m884.12 387.6h5.74v19.12h-5.74z" transform="matrix(.33594478 -.94188168 .94188168 .33594478 214.95 1099.2)"/><path d="m878.98 402.01h5.74v19.12h-5.74z" transform="matrix(.33594478 -.94188168 .94188168 .33594478 197.97 1103.92)"/><path d="m864.83 403.65h5.74v38.24h-5.74z" transform="matrix(.34 -.94 .94 .34 178.03 1098.04)"/><path d="m869.89 427.48h5.74v19.12h-5.74z" transform="matrix(.33594478 -.94188168 .94188168 .33594478 167.94 1112.28)"/><path d="m864.76 441.89h5.74v19.12h-5.74z" transform="matrix(.33594478 -.94188168 .94188168 .33594478 150.96 1117.01)"/><path d="m859.62 456.3h5.74v19.12h-5.74z" transform="matrix(.33594478 -.94188168 .94188168 .33594478 133.97 1121.74)"/><path d="m845.47 457.94h5.74v38.24h-5.74z" transform="matrix(.34 -.94 .94 .34 114.04 1115.85)"/><path d="m852.33 482.41h5.74v19.12h-5.74z" transform="matrix(.33594478 -.94188168 .94188168 .33594478 104.54 1132.22)"/><path d="m847.19 496.82h5.74v19.12h-5.74z" transform="matrix(.33594478 -.94188168 .94188168 .33594478 87.56 1136.95)"/><path d="m842.06 511.23h5.74v19.12h-5.74z" transform="matrix(.33594478 -.94188168 .94188168 .33594478 70.57 1141.68)"/><path d="m827.91 512.87h5.74v38.24h-5.74z" transform="matrix(.34 -.94 .94 .34 50.63 1135.79)"/><path d="m832.97 536.7h5.74v19.12h-5.74z" transform="matrix(.33594478 -.94188168 .94188168 .33594478 40.55 1150.04)"/><path d="m827.83 551.11h5.74v19.12h-5.74z" transform="matrix(.33594478 -.94188168 .94188168 .33594478 23.56 1154.77)"/><path d="m822.69 565.52h5.74v19.12h-5.74z" transform="matrix(.33594478 -.94188168 .94188168 .33594478 6.58 1159.5)"/><path d="m808.55 567.16h5.74v38.24h-5.74z" transform="matrix(.33594478 -.94188168 .94188168 .33594478 -13.36 1153.61)"/><path d="m813.61 591h5.74v19.12h-5.74z" transform="matrix(.33594478 -.94188168 .94188168 .33594478 -23.45 1167.86)"/><path d="m808.47 605.4h5.74v19.12h-5.74z" transform="matrix(.33594478 -.94188168 .94188168 .33594478 -40.43 1172.59)"/><path d="m803.33 619.81h5.74v19.12h-5.74z" transform="matrix(.33594478 -.94188168 .94188168 .33594478 -57.42 1177.31)"/><path d="m789.19 621.45h5.74v38.24h-5.74z" transform="matrix(.33594478 -.94188168 .94188168 .33594478 -77.36 1171.43)"/></g><path d="m540.87 403.97h529.69v3.82h-529.69z" fill="#fff" transform="matrix(.33594478 -.94188168 .94188168 .33594478 152.77 1028.44)"/><path d="m694.24 647.3-5.4-1.93 175.36-491.7a5.74 5.74 0 0 1 7.33-3.48z" fill="#fff"/><path d="m521.69 396.85h527.77v5.74h-527.77z" fill="#fff" transform="matrix(.33594478 -.94188168 .94188168 .33594478 145.21 1005.38)"/><path d="m527.1 398.77h527.77v5.74h-527.77z" fill="#fff" transform="matrix(.33594478 -.94188168 .94188168 .33594478 146.98 1011.75)"/><circle cx="748.77" cy="642.39" fill="#fff" r="8.6" transform="matrix(.33594478 -.94188168 .94188168 .33594478 -107.81 1131.87)"/><path d="m744.92 653.2a11.47 11.47 0 1 1 14.66-7 11.49 11.49 0 0 1 -14.66 7zm5.78-16.2a5.74 5.74 0 1 0 3.48 7.33 5.74 5.74 0 0 0 -3.48-7.33z" fill="#314e5d"/><circle cx="910.13" cy="184.27" fill="#fff" r="8.6" transform="matrix(.33594478 -.94188168 .94188168 .33594478 430.84 979.61)"/><path d="m906.27 195.07a11.47 11.47 0 1 1 14.66-7 11.49 11.49 0 0 1 -14.66 7zm5.78-16.21a5.74 5.74 0 1 0 3.48 7.33 5.74 5.74 0 0 0 -3.48-7.33z" fill="#314e5d"/><path d="m781.13 684.38-84-30a16.63 16.63 0 0 1 -10.06-21.22l170-476.63a16.63 16.63 0 0 1 21.22-10.06l84 30a16.63 16.63 0 0 1 10.06 21.22l-170 476.63a16.63 16.63 0 0 1 -21.22 10.06zm95.23-532.46a10.88 10.88 0 0 0 -13.89 6.59l-170 476.63a10.88 10.88 0 0 0 6.6 13.86l84 30a10.88 10.88 0 0 0 13.89-6.59l170-476.63a10.88 10.88 0 0 0 -6.59-13.89z" fill="#314e5d"/><path d="m856.8 328.09a83.34 83.34 0 0 1 4.28-22.28 50 50 0 0 1 8.59-16.25 28.51 28.51 0 0 1 15.53-9.92l.4 1.87a26.61 26.61 0 0 0 -14.46 9.28 48.16 48.16 0 0 0 -8.25 15.64 81.45 81.45 0 0 0 -4.18 21.77z" opacity=".1"/><path d="m796.24 349a26.93 26.93 0 0 1 -3.88-1.74l.92-1.68c12.74 7 30.34 2.09 37.67-10.44 2.13-3.64 3.64-8.09 4.75-14 1.87-10 1.72-18.94-.46-26.62-2.6-9.15-8.26-16.68-15.53-20.66l.92-1.68c7.72 4.22 13.72 12.17 16.45 21.82 2.26 8 2.43 17.21.5 27.49-1.15 6.14-2.73 10.79-5 14.63-7.09 12.09-23.24 17.5-36.34 12.88z" opacity=".1"/><path d="m799.77 327.24.18-1.9c7.72.75 15.55-5.26 17.45-13.39 1.74-7.48-1.41-16.23-7.85-21.79l1.25-1.45c7 6 10.37 15.53 8.47 23.68-2.11 9.02-10.85 15.69-19.5 14.85z" opacity=".1"/><path d="m727.2 553.73a15.62 15.62 0 0 1 -3.84-2l1.11-1.56c3.62 2.59 8.25 3.26 13.36 1.95 11.15-2.86 23.06-14.51 30.35-29.68 3.29-6.85 6.09-14.92 8.82-25.4 4.58-17.62 6.67-33 6.21-45.62-.54-15-4.81-26.46-11.71-31.38l1.11-1.56c7.39 5.27 11.94 17.25 12.51 32.87.46 12.84-1.65 28.37-6.27 46.17-2.76 10.6-5.6 18.78-8.94 25.75-7.53 15.65-19.91 27.73-31.6 30.73a18.84 18.84 0 0 1 -11.11-.27z" opacity=".1"/><path d="m736.69 516-.15-1.91c8.21-.66 18.66-13.46 22.81-28 3.86-13.48 2.63-27.87-3.06-35.81l1.55-1.12c6.11 8.52 7.42 23.22 3.35 37.45-4.43 15.48-15.42 28.64-24.5 29.39z" opacity=".1"/><path d="m868.29 461.93c-7.72-4.22-13.72-12.17-16.45-21.82-2.26-8-2.43-17.21-.5-27.49 1.15-6.14 2.73-10.79 5-14.63 7.83-13.38 26.63-18.6 40.24-11.15l-.92 1.68c-12.73-7-30.34-2.09-37.67 10.44-2.13 3.64-3.64 8.09-4.75 14-1.87 10-1.72 18.94.46 26.62 2.6 9.15 8.26 16.68 15.53 20.66z" opacity=".1"/><path d="m878.12 445.35c-7-6-10.37-15.53-8.47-23.68 2.11-9 10.85-15.7 19.5-14.86l-.18 1.9c-7.72-.75-15.55 5.26-17.45 13.39-1.74 7.48 1.41 16.23 7.85 21.79z" opacity=".1"/><path d="m799.3 650.49c-10.91-6-19.39-17.21-23.26-30.85-3.2-11.29-3.44-24.41-.7-39 1.63-8.71 3.87-15.29 7-20.72 11.06-18.89 37.6-26.25 56.81-15.74l-.92 1.68c-18.33-10-43.68-3-54.24 15-3.06 5.23-5.23 11.61-6.82 20.1-2.68 14.29-2.46 27.12.66 38.12 3.73 13.15 11.87 24 22.33 29.69z" opacity=".1"/><path d="m813.36 626.91c-9.81-8.47-14.61-21.87-11.94-33.35 3-12.68 15.23-22 27.36-20.87l-.18 1.9c-11.21-1.09-22.56 7.62-25.31 19.4-2.52 10.8 2 23.44 11.32 31.46z" opacity=".1"/><path d="m542.44 399.48h506.74v5.74h-506.74z" fill="#314e5d" transform="matrix(.33594478 -.94188168 .94188168 .33594478 149.52 1016.76)"/><path d="m801.51 496.08c-2.21-6.08-5-13.64-4.77-21.3.15-6 2-11.75 3.89-17.31 1-3.14 2.11-6.38 2.85-9.61a52.3 52.3 0 0 0 -16.65-50.19l1.24-1.45a54.26 54.26 0 0 1 17.27 52.07c-.76 3.32-1.84 6.61-2.9 9.79-1.8 5.43-3.65 11-3.79 16.76-.18 7.29 2.5 14.67 4.65 20.6z" opacity=".1"/><path d="m873.57 259.88c-2.21-6.08-5-13.64-4.77-21.3.15-6 2-11.75 3.89-17.31 1-3.14 2.11-6.38 2.85-9.61a52.3 52.3 0 0 0 -16.65-50.19l1.24-1.45a54.26 54.26 0 0 1 17.27 52.07c-.76 3.32-1.84 6.61-2.9 9.79-1.8 5.43-3.65 11-3.79 16.76-.18 7.29 2.5 14.67 4.65 20.6z" opacity=".1"/><path d="m927.22 297.29c-2.21-6.08-5-13.64-4.77-21.3.15-6 2-11.75 3.89-17.31 1-3.14 2.11-6.38 2.85-9.61a52.3 52.3 0 0 0 -16.65-50.19l1.24-1.45a54.26 54.26 0 0 1 17.27 52.07c-.76 3.32-1.84 6.61-2.9 9.79-1.8 5.43-3.65 11-3.79 16.76-.18 7.29 2.5 14.67 4.65 20.6z" opacity=".1"/><path d="m727.65 662.09-1.61-1c3.63-5.71 3.24-13 2.86-20-.1-1.83-.2-3.66-.23-5.46a136.2 136.2 0 0 1 1.33-18.4c1.41-11.72 2.75-22.8-1.53-33.12-3.09-7.45-9-13.61-14.26-18.79l1.34-1.36c5.41 5.31 11.46 11.64 14.69 19.42 4.48 10.79 3 22.63 1.67 34.08a134.62 134.62 0 0 0 -1.37 18.12c0 1.77.13 3.57.22 5.38.44 7.33.85 14.9-3.11 21.13z" opacity=".1"/></svg>